<svg width="750pt" height="750pt" version="1.2" viewBox="0 0 750 750" xmlns="http://www.w3.org/2000/svg">
 <path transform="matrix(1,0,0,-1,0,750)" d="m20.64 611.2c0 65.23 52.88 118.1 118.1 118.1h472.5c65.23 0 118.1-52.89 118.1-118.1v-472.5c0-65.24-52.89-118.1-118.1-118.1h-472.5c-65.24 0-118.1 52.88-118.1 118.1z" fill="#002f9f" fill-rule="evenodd" stroke="#bebebe" stroke-miterlimit="10" stroke-width="6"/>
 <path d="m458.9 486.1c-81.61 60.7 114.4 20.95 27.2 73.36s39.85-102-52.04-58.43c-91.89 43.61 108.1 42.86 12.36 77.26-95.72 34.4 58.99-92.3-39.64-67.46-98.63 24.85 97.64 63.12-2.949 78.19s75.87-79.02-25.72-73.89c-101.6 5.128 83.45 80.96-18.15 76.11-101.6-4.853 89.82-62.7-10.81-77.49-100.6-14.79 66.05 95.69-32.65 71.11-98.7-24.58 100.3-43.97 4.517-78.11-95.81-34.14 46.12 106.7-45.89 63.37-92.01-43.36 107-23.56 19.67-75.73-87.31-52.17 24.41 113.7-57.37 53.2s109.5-2.232 34.06-70.44c-75.46-68.2 1.761 116.3-66.65 40.99-68.41-75.27 107.9 19.18 47.15-62.44s-20.95 114.4-73.36 27.2 102 39.85 58.43-52.04c-43.61-91.89-42.86 108.1-77.26 12.36-34.4-95.72 92.3 58.99 67.46-39.64-24.85-98.63-63.12 97.64-78.19-2.949s79.02 75.87 73.89-25.72c-5.128-101.6-80.96 83.45-76.11-18.15 4.853-101.6 62.7 89.82 77.49-10.81 14.79-100.6-95.69 66.05-71.11-32.65 24.58-98.7 43.97 100.3 78.11 4.517 34.14-95.81-106.7 46.12-63.37-45.89 43.36-92.01 23.56 107 75.73 19.67 52.17-87.31-113.7 24.41-53.2-57.37s2.232 109.5 70.44 34.06c68.2-75.46-116.3 1.761-40.99-66.65 75.27-68.41-19.18 107.9 62.44 47.15s-114.4-20.95-27.2-73.36-39.85 102 52.04 58.43c91.89-43.61-108.1-42.86-12.36-77.26 95.72-34.4-58.99 92.3 39.64 67.46 98.63-24.85-97.64-63.12 2.949-78.19s-75.87 79.02 25.72 73.89c101.6-5.128-83.45-80.96 18.15-76.11 101.6 4.853-89.82 62.7 10.81 77.49 100.6 14.79-66.05-95.69 32.65-71.11 98.7 24.58-100.3 43.97-4.517 78.11 95.81 34.14-46.12-106.7 45.89-63.37 92.01 43.36-107 23.56-19.67 75.73 87.31 52.17-24.41-113.7 57.37-53.2 81.78 60.48-109.5 2.232-34.06 70.44 75.46 68.2-1.761-116.3 66.65-40.99 68.41 75.27-107.9-19.18-47.15 62.44s20.95-114.4 73.36-27.2-102-39.85-58.43 52.04c43.61 91.89 42.86-108.1 77.26-12.36 34.4 95.72-92.3-58.99-67.46 39.64 24.85 98.63 63.12-97.64 78.19 2.949s-79.02-75.87-73.89 25.72c5.128 101.6 80.96-83.45 76.11 18.15-4.853 101.6-62.7-89.82-77.49 10.81-14.79 100.6 95.69-66.05 71.11 32.65-24.58 98.7-43.97-100.3-78.11-4.517-34.14 95.81 106.7-46.12 63.37 45.89-43.36 92.01-23.56-107-75.73-19.67-52.17 87.31 113.7-24.41 53.2 57.37s-2.232-109.5-70.44-34.06c-68.2 75.46 116.3-1.761 40.99 66.65-75.27 68.41 19.18-107.9-62.44-47.15z" fill="#ffed20"/>
</svg>
